::::: UnKnOwN Presents :::::


:::: Rammbock Berlin Undead 2011 DVDRip ::::


::Notes::


Encoded By .......:UnKnOwN
Runtime ..........:1:01
IMDb URL .........:http://www.imdb.com/title/tt1583356/
Language .........:English
File Size ........:700mb
Release Date ......... 2011
Source ......... R1
File Type ......... Single AVI
PS3 Compatible ....... Go for it
Genre ......... Horror/Gore


Infomation::


Video
ID: 0
Format: MPEG-4 Visual
Format profile: Advanced Simple@L5
Format settings, BVOP: Yes
Format settings, QPel: No
Format settings, GMC: No warppoints
Format settings, Matrix: Custom
Codec ID: XVID
Codec ID/Hint: XviD
Duration: 1h 01mn
Bit rate: 1 187 Kbps
Width: 680pixels
Height: 364 pixels
Display aspect ratio: 16:9
Frame rate: 29.976 fps
Color space: YUV
Chroma subsampling: 4:2:0
Bit depth: 8 bits
Scan type: Progressive
Bits/(Pixel*Frame): 0.234
Stream size: 892 MiB (86%)
Writing library: XviD 1.2.1 (UTC 2008-12-04)

Audio
ID: 1
Format: AC-3
Format/Info: Audio Coding 3
Mode extension: Layer 3
Codec ID: 2000
Duration: 1h 01mn
Bit rate mode: Constant
Bit rate: 448 Kbps
Channel(s): 6 channels
Channel positions: Front: L C R, Side: L R, LFE
Sampling rate: 48.0 KHz
Bit depth: 16 bits
Stream size: 302 MiB
Alignment: Aligned on interleaves
Interleave, duration: 42 ms (1.00 video frame)
Interleave, preload duration: 512 ms


::Other::


Woot
LOOKING FOR
That special grain filter a certain RG uses
to make 70% of there rips unwatchable(:
GREETZ & RESPECT
NOBODY YET WILL LET YOU KNOW
MORE GOODIES COMING REAL SOON


::More Information::

 
http://leetleech.org/images/93636734412986972833.png


::Screens::

 
http://leetleech.org/images/99756870276895685302.png
 
http://leetleech.org/images/30510154754437100654.png
 
http://leetleech.org/images/70581517525299709843.png


ENJOY!